<svg xmlns="http://www.w3.org/2000/svg" width="18.135" height="24.468" viewBox="0 0 18.135 24.468"><g transform="translate(-816.364 -326.766)"><g transform="translate(812.364 325.766)"><g transform="translate(4 1)"><path d="M13.978,9.8,17.533,1l4.6,1.859L18.523,11.8a8.239,8.239,0,0,0-4.545-2ZM7.614,11.805,4,2.859,8.6,1l3.556,8.8a8.239,8.239,0,0,0-4.543,2.005Z" transform="translate(-4 -1)" fill="#157efb" fill-rule="evenodd"/></g></g><g transform="translate(837.364 326.766)"><g transform="translate(4 1)"><path d="M13.071,25.468a7.445,7.445,0,1,0-7.445-7.445,7.445,7.445,0,0,0,7.445,7.445Zm0-5.218-2.9,1.909,1.241-3.309L8.935,17.2h2.9l1.241-3.309L14.312,17.2h2.9L14.726,18.85l1.241,3.309-2.9-1.909Z" transform="translate(-29 -2)" fill="#ffd014" fill-rule="evenodd"/></g></g></g></svg>