<svg xmlns="http://www.w3.org/2000/svg" width="93.593" height="75.748" viewBox="0 0 93.593 75.748"><g transform="translate(89.52 80.174) rotate(-177)"><path d="M41.672,0S6.211,36.253,5.188,37.473-2.143,46.362.755,54.2A46.218,46.218,0,0,0,9.45,68.148s4.6,5.577,13.468,4.183,4.944,1.22,11.934-4.183,10.059-9.586,10.229-9.063S41.672,0,41.672,0Z" transform="translate(0 5.266)" fill="#b2163a" opacity="0.78"/><path d="M3.544,0S40.337,36.306,41.4,37.528s7.607,8.9,4.6,16.757a46.173,46.173,0,0,1-9.022,13.964S32.2,73.834,23,72.438s-5.13,1.222-12.382-4.189S.184,58.648.006,59.172,3.544,0,3.544,0Z" transform="translate(38.135 5.701) rotate(-7)" fill="#b2163a"/><path d="M0,0,3.3,57.508" transform="translate(41.733 6.829)" fill="#b2163a" stroke="#b2163a" stroke-width="1"/></g></svg>