<svg xmlns="http://www.w3.org/2000/svg" width="94.375" height="89.192" viewBox="0 0 94.375 89.192"><g transform="translate(2.739 -2.977) rotate(2)"><path d="M42.033,0S6.264,36.567,5.233,37.8-2.162,46.763.762,54.674a46.618,46.618,0,0,0,8.77,14.064s4.643,5.626,13.585,4.219,4.987,1.231,12.037-4.219S45.3,59.069,45.472,59.6,42.033,0,42.033,0Z" transform="translate(0 5.312)" fill="#03a57a"/><path d="M3.575,0S40.687,36.62,41.757,37.853s7.672,8.979,4.639,16.9A46.572,46.572,0,0,1,37.3,68.84s-4.817,5.634-14.1,4.225S18.027,74.3,10.711,68.84.185,59.156.006,59.684,3.575,0,3.575,0Z" transform="translate(38.465 5.751) rotate(-7)" fill="#03a57a" opacity="0.78"/><path d="M0,0,3.362,58.915" transform="translate(42.059 5.979)" fill="#03a57a" stroke="#03a57a" stroke-linecap="round" stroke-width="1"/><path d="M0,0C3.4,8.722,0,18.721,0,18.721v6.808" transform="translate(45.099 64.877)" fill="none" stroke="#03a57a" stroke-width="11"/></g></svg>