<svg xmlns="http://www.w3.org/2000/svg" width="50.426" height="33.186" viewBox="0 0 50.426 33.186"><g transform="translate(0 -1.407)"><g transform="translate(0 6.148) rotate(-5)"><g fill="#f1f1f1" stroke="#707070" stroke-width="2"><rect width="19.104" height="26.728" rx="3" stroke="none"/><rect x="1" y="1" width="17.104" height="24.728" rx="2" fill="none"/></g><g transform="translate(17.67 25.709) rotate(-178)"><path d="M2.27,0S.338,1.975.283,2.042a1,1,0,0,0-.241.912,2.518,2.518,0,0,0,.474.76.8.8,0,0,0,.734.228c.483-.076.269.066.65-.228s.548-.522.557-.494S2.27,0,2.27,0Z" transform="translate(0 0.287)" fill="#ff6464"/><path d="M.193,0s2,1.978,2.062,2.045a.979.979,0,0,1,.251.913,2.516,2.516,0,0,1-.492.761.848.848,0,0,1-.761.228c-.5-.076-.279.067-.675-.228S.01,3.2,0,3.224.193,0,.193,0Z" transform="translate(2.078 0.311) rotate(-7)" fill="#eb2525"/><path d="M0,0,.18,3.133" transform="translate(2.274 0.372)" fill="none" stroke="#eb2525" stroke-width="3"/></g><g transform="translate(2.411 2.602) rotate(2)"><path d="M2.189,0S.326,1.9.273,1.969a.964.964,0,0,0-.233.879A2.428,2.428,0,0,0,.5,3.58.773.773,0,0,0,1.2,3.8c.466-.073.26.064.627-.22s.528-.5.537-.476S2.189,0,2.189,0Z" transform="translate(0 0.277)" fill="#0ba26a"/><path d="M.186,0S2.119,1.907,2.175,1.971a.944.944,0,0,1,.242.88,2.426,2.426,0,0,1-.474.734.818.818,0,0,1-.734.22c-.483-.073-.269.064-.65-.22S.01,3.081,0,3.109.186,0,.186,0Z" transform="translate(2.003 0.3) rotate(-7)" fill="#60bb99"/><path d="M0,0,.163,2.275" transform="translate(2.203 1.105)" fill="none" stroke="#0ba26a" stroke-linecap="round" stroke-width="1"/><path d="M0,0A1.612,1.612,0,0,1,0,.975V1.33" transform="translate(2.349 3.379)" fill="none" stroke="#0ba26a" stroke-width="1"/></g></g><g transform="matrix(0.996, 0.087, -0.087, 0.996, 9.646, 2.922)"><g fill="#f1f1f1" stroke="#707070" stroke-width="2"><rect width="19.104" height="26.728" rx="3" stroke="none"/><rect x="1" y="1" width="17.104" height="24.728" rx="2" fill="none"/></g><g transform="translate(8.094 7.862) rotate(-178)"><path d="M2.27,0S.338,1.975.283,2.042a1,1,0,0,0-.241.912,2.518,2.518,0,0,0,.474.76.8.8,0,0,0,.734.228c.483-.076.269.066.65-.228s.548-.522.557-.494S2.27,0,2.27,0Z" transform="translate(0 0.287)" fill="#ff6464"/><path d="M.193,0s2,1.978,2.062,2.045a.979.979,0,0,1,.251.913,2.516,2.516,0,0,1-.492.761.848.848,0,0,1-.761.228c-.5-.076-.279.067-.675-.228S.01,3.2,0,3.224.193,0,.193,0Z" transform="translate(2.078 0.311) rotate(-7)" fill="#eb2525"/><path d="M0,0,.18,2.964" transform="translate(2.274 0.541)" fill="none" stroke="#eb2525" stroke-width="1"/></g></g><g transform="matrix(0.97, 0.242, -0.242, 0.97, 20.918, 1.407)"><g fill="#f1f1f1" stroke="#707070" stroke-width="2"><rect width="19.104" height="26.728" rx="3" stroke="none"/><rect x="1" y="1" width="17.104" height="24.728" rx="2" fill="none"/></g><path d="M2,0A2.047,2.047,0,0,1,4.092,2,2.047,2.047,0,0,1,2,4" transform="translate(3.72 3.674)" fill="#ffed94"/><path d="M4.1,0A2.053,2.053,0,0,0,2,2,2.053,2.053,0,0,0,4.1,4" transform="translate(1.661 3.685)" fill="#f6d322"/></g><g transform="matrix(0.94, 0.342, -0.342, 0.94, 32.52, 2.942)"><g transform="translate(-0.043 0.016)" fill="#f1f1f1" stroke="#707070" stroke-width="2"><rect width="19.104" height="26.728" rx="3" stroke="none"/><rect x="1" y="1" width="17.104" height="24.728" rx="2" fill="none"/></g><path d="M7.5,3.536s-2.019.191-2,2.082S5.488,8.57,5.488,8.57l2.035-.008Z" transform="translate(-0.946 -0.598)" fill="#cb5629"/><path d="M5.508,3.536A2.069,2.069,0,0,1,7.377,5.628c-.019,1.9.015,2.964.015,2.964l-1.9-.008Z" transform="translate(1.006 -0.599)" fill="#ee7955"/></g></g></svg>