<svg width="1381" height="543" viewBox="0 0 1381 543" fill="none" xmlns="http://www.w3.org/2000/svg">
<path d="M515.648 192C535.448 192 551.548 196.4 563.948 205.2C576.348 213.8 582.548 228.4 582.548 249C582.548 256.6 580.748 263.5 577.148 269.7C573.748 275.7 569.248 280.9 563.648 285.3C572.848 290.1 580.348 296.6 586.148 304.8C592.148 313 595.148 323.4 595.148 336C595.148 354.8 588.548 369.5 575.348 380.1C562.348 390.7 544.948 396 523.148 396H439.448V192H515.648ZM509.948 224.4H478.148V275.1H506.948C517.748 275.1 526.148 273.1 532.148 269.1C538.348 264.9 541.448 258.4 541.448 249.6C541.448 240 538.648 233.4 533.048 229.8C527.448 226.2 519.748 224.4 509.948 224.4ZM522.848 306.6H478.148V363.9H520.148C530.548 363.9 538.848 361.5 545.048 356.7C551.448 351.9 554.648 345.1 554.648 336.3C554.648 326.7 551.748 319.4 545.948 314.4C540.148 309.2 532.448 306.6 522.848 306.6ZM657.358 352.5C657.358 356.7 659.058 360.5 662.458 363.9C665.858 367.1 670.358 368.7 675.958 368.7C681.358 368.7 686.758 367.5 692.158 365.1C697.758 362.7 703.058 359.1 708.058 354.3V332.1H678.658C671.858 332.1 666.558 334.2 662.758 338.4C659.158 342.6 657.358 347.3 657.358 352.5ZM676.558 399.6C658.758 399.6 645.558 395.3 636.958 386.7C628.358 377.9 624.058 366.5 624.058 352.5C624.058 337.5 629.158 326 639.358 318C649.558 310 662.858 306 679.258 306H707.758C707.558 298.6 705.358 292.9 701.158 288.9C697.158 284.7 691.558 282.6 684.358 282.6C677.558 282.6 670.158 283.6 662.158 285.6C654.158 287.4 647.458 289.6 642.058 292.2L631.558 259.8C637.158 256 645.658 252.9 657.058 250.5C668.658 247.9 677.558 246.6 683.758 246.6C701.158 246.6 716.058 251.7 728.458 261.9C740.858 271.9 747.058 284.7 747.058 300.3V396H726.958L717.358 383.7C711.958 387.9 705.558 391.6 698.158 394.8C690.958 398 683.758 399.6 676.558 399.6ZM872.946 393C869.746 395.6 865.146 397.7 859.146 399.3C853.346 401.1 848.146 402 843.546 402C825.546 402 811.346 397.5 800.946 388.5C790.746 379.3 785.646 366.3 785.646 349.5V280.8H766.146V250.8H785.646V216.3L824.346 209.4V250.8H850.746L862.746 280.8H824.346V342.6C824.346 350.2 826.146 356.5 829.746 361.5C833.346 366.3 838.646 368.7 845.646 368.7C848.246 368.7 850.846 368.4 853.446 367.8C856.046 367.2 858.746 366.2 861.546 364.8L872.946 393ZM923.667 352.5C923.667 356.7 925.367 360.5 928.767 363.9C932.167 367.1 936.667 368.7 942.267 368.7C947.667 368.7 953.067 367.5 958.467 365.1C964.067 362.7 969.367 359.1 974.367 354.3V332.1H944.967C938.167 332.1 932.867 334.2 929.067 338.4C925.467 342.6 923.667 347.3 923.667 352.5ZM942.867 399.6C925.067 399.6 911.867 395.3 903.267 386.7C894.667 377.9 890.367 366.5 890.367 352.5C890.367 337.5 895.467 326 905.667 318C915.867 310 929.167 306 945.567 306H974.067C973.867 298.6 971.667 292.9 967.467 288.9C963.467 284.7 957.867 282.6 950.667 282.6C943.867 282.6 936.467 283.6 928.467 285.6C920.467 287.4 913.767 289.6 908.367 292.2L897.867 259.8C903.467 256 911.967 252.9 923.367 250.5C934.967 247.9 943.867 246.6 950.067 246.6C967.467 246.6 982.367 251.7 994.767 261.9C1007.17 271.9 1013.37 284.7 1013.37 300.3V396H993.267L983.667 383.7C978.267 387.9 971.867 391.6 964.467 394.8C957.267 398 950.067 399.6 942.867 399.6ZM1119.75 278.1C1106.15 278.1 1096.65 282.9 1091.25 292.5C1086.05 302.1 1083.45 312 1083.45 322.2C1083.45 333.6 1085.85 343.8 1090.65 352.8C1095.45 361.8 1105.15 366.3 1119.75 366.3C1124.35 366.3 1129.15 365.3 1134.15 363.3C1139.35 361.1 1144.15 358.6 1148.55 355.8V288.6C1144.15 285.6 1139.35 283.1 1134.15 281.1C1129.15 279.1 1124.35 278.1 1119.75 278.1ZM1187.85 184.2V396H1167.45L1156.65 381.9C1150.05 387.5 1142.25 391.9 1133.25 395.1C1124.45 398.1 1116.45 399.6 1109.25 399.6C1088.05 399.6 1071.75 392.2 1060.35 377.4C1048.95 362.6 1043.25 344.2 1043.25 322.2C1043.25 300.2 1049.25 281.8 1061.25 267C1073.45 252.2 1090.05 244.8 1111.05 244.8C1116.45 244.8 1122.55 245.8 1129.35 247.8C1136.15 249.6 1142.55 252.2 1148.55 255.6V187.5L1187.85 184.2ZM1256.79 170.1H1296.99L1314.99 219.3H1285.59L1256.79 170.1ZM1330.29 381.6C1323.69 387.8 1315.59 392.7 1305.99 396.3C1296.39 400.1 1287.69 402 1279.89 402C1260.09 402 1245.99 396.2 1237.59 384.6C1229.39 372.8 1225.29 358.6 1225.29 342V250.5H1264.59V340.2C1264.59 349.4 1266.79 356.5 1271.19 361.5C1275.59 366.3 1281.99 368.7 1290.39 368.7C1295.59 368.7 1301.09 367.4 1306.89 364.8C1312.69 362.2 1317.99 359.2 1322.79 355.8V250.5H1361.79V396H1341.39L1330.29 381.6Z" fill="#5B51CB"/>
<g clip-path="url(#clip0)">
<path d="M154.608 141C237.668 141 305 206.917 305 288.23C305 369.544 237.668 435.461 154.608 435.461" fill="#C0BCEC"/>
<path d="M154.608 141.859C69.2227 141.859 0 207.719 0 288.927C0 370.135 69.2227 436 154.608 436" fill="#5B51CB"/>
<path d="M119.099 228.191C113.565 228.061 108.061 229.056 102.922 231.115C97.7817 233.175 93.1118 236.257 89.1939 240.175C81.3771 248.181 77 258.935 77 270.134C77 281.333 81.3771 292.088 89.1939 300.093L154.277 369.179L219.346 300.093C227.174 292.126 231.542 281.383 231.498 270.203C231.454 259.024 227.002 248.315 219.112 240.41C211.222 232.505 200.533 228.044 189.375 228C178.216 227.956 167.493 232.332 159.541 240.175L154.277 245.792L148.999 240.151C145.08 236.238 140.41 233.16 135.271 231.105C130.132 229.049 124.631 228.058 119.099 228.191Z" fill="white"/>
</g>
<defs>
<clipPath id="clip0">
<rect width="305" height="295" fill="white" transform="translate(0 141)"/>
</clipPath>
</defs>
</svg>
