<svg xmlns="http://www.w3.org/2000/svg" width="44.734" height="51.127" viewBox="0 0 44.734 51.127"><path d="M31.115,14.39l-.354.41a17.073,17.073,0,0,1,6.375,3.243,20.913,20.913,0,0,0-7.7-2.516,21.6,21.6,0,0,0-5.163,0h-.447a19.31,19.31,0,0,0-5.8,1.6c-.951.447-1.51.746-1.51.746a17.278,17.278,0,0,1,6.654-3.169l-.261-.317a12.619,12.619,0,0,0-7.176,2.684A34.184,34.184,0,0,0,12.01,31.985a9.32,9.32,0,0,0,7.81,3.877l1.7-2.125a7.959,7.959,0,0,1-4.473-3.02s.261.186.727.447h.093l.242.13a13.626,13.626,0,0,0,1.864.857,21.063,21.063,0,0,0,3.728,1.1,17.912,17.912,0,0,0,6.636,0,16.5,16.5,0,0,0,3.728-1.1,14.763,14.763,0,0,0,2.945-1.51,8.052,8.052,0,0,1-4.511,3.15c.764.969,1.678,2.069,1.678,2.069A9.32,9.32,0,0,0,42,31.985a34.314,34.314,0,0,0-3.728-14.911,12.693,12.693,0,0,0-7.157-2.684ZM22.28,29.6A2.852,2.852,0,1,1,24.89,26.71,2.74,2.74,0,0,1,22.28,29.6Zm9.32,0a2.852,2.852,0,0,1,0-5.592,2.852,2.852,0,0,1,0,5.592Z" transform="translate(-4.536 -2.48)" fill="none"/><path d="M47.5,8H13.238A5.256,5.256,0,0,0,8,13.275V47.459a5.256,5.256,0,0,0,5.238,5.275H42.221L40.879,48l3.262,3.411,3.094,2.852,5.5,4.865V13.275A5.256,5.256,0,0,0,47.5,8ZM37.618,41.383s-.913-1.1-1.678-2.069a8.052,8.052,0,0,0,4.622-3.038,14.762,14.762,0,0,1-2.945,1.51,16.5,16.5,0,0,1-3.728,1.1,17.912,17.912,0,0,1-6.636,0,21.062,21.062,0,0,1-3.728-1.1,13.625,13.625,0,0,1-1.864-.857l-.242-.13h-.093c-.466-.261-.727-.447-.727-.447a7.959,7.959,0,0,0,4.473,3.02l-1.7,2.125a9.32,9.32,0,0,1-7.81-3.877A34.184,34.184,0,0,1,19.3,22.706a12.619,12.619,0,0,1,7.176-2.684l.261.317A17.278,17.278,0,0,0,20,23.675s.559-.3,1.51-.746a19.31,19.31,0,0,1,5.8-1.6h.447a21.6,21.6,0,0,1,5.163,0,20.913,20.913,0,0,1,7.7,2.442,17.073,17.073,0,0,0-6.375-3.243l.354-.41A12.693,12.693,0,0,1,41.793,22.8a34.314,34.314,0,0,1,3.728,14.911,9.32,9.32,0,0,1-7.9,3.672Z" transform="translate(-8 -8)" fill="#fff"/><ellipse cx="2.609" cy="2.833" rx="2.609" ry="2.833" transform="translate(24.455 21.454)" fill="#fff"/><path d="M18.954,19.515a2.852,2.852,0,1,0,2.609,2.777,2.721,2.721,0,0,0-2.609-2.777Z" transform="translate(-1.209 1.939)" fill="#fff"/></svg>