<svg width="443" height="443" viewBox="0 0 443 443" fill="none" xmlns="http://www.w3.org/2000/svg">
<rect width="443" height="443" rx="100" fill="#F0EFFF"/>
<g clip-path="url(#clip0)">
<path d="M198.508 389.552C192.115 386.843 185.999 383.522 180.245 379.635C175.566 376.475 171.143 372.952 167.016 369.099C165.518 377.215 161.225 384.549 154.883 389.828C148.541 395.108 140.549 397.999 132.298 398C122.936 398 113.958 394.281 107.338 387.661C100.719 381.041 97 372.062 97 362.7V80.2991C97 70.9369 100.719 61.9577 107.338 55.3376C113.958 48.7176 122.936 44.999 132.298 44.999C141.659 44.999 150.637 48.7176 157.257 55.3376C163.876 61.9577 167.595 70.9369 167.595 80.2991V211.307C171.558 207.663 175.786 204.319 180.246 201.304C186 197.419 192.116 194.099 198.509 191.392C211.75 185.788 225.985 182.914 240.362 182.941C254.74 182.914 268.976 185.789 282.217 191.394C288.61 194.101 294.726 197.421 300.48 201.306C306.188 205.169 311.515 209.566 316.388 214.44C321.259 219.315 325.655 224.644 329.516 230.353C333.401 236.108 336.722 242.224 339.431 248.617C345.033 261.858 347.909 276.093 347.884 290.471C347.911 304.849 345.037 319.085 339.436 332.327C336.727 338.72 333.406 344.836 329.521 350.591C325.658 356.299 321.261 361.627 316.388 366.502C311.513 371.375 306.185 375.771 300.475 379.631C294.721 383.518 288.605 386.839 282.211 389.547C268.972 395.151 254.738 398.026 240.362 398C225.985 398.028 211.749 395.155 198.508 389.552ZM203.246 256.557C198.812 261.262 196.342 267.483 196.342 273.949C196.342 280.415 198.812 286.637 203.246 291.342L240.361 331.449L277.477 291.342C281.911 286.637 284.38 280.415 284.38 273.949C284.38 267.483 281.911 261.262 277.477 256.557C275.243 254.31 272.586 252.529 269.659 251.317C266.732 250.105 263.594 249.487 260.426 249.497C257.258 249.487 254.119 250.105 251.192 251.317C248.265 252.529 245.608 254.31 243.374 256.557L240.365 259.829L237.355 256.557C235.142 254.29 232.486 252.502 229.553 251.305C226.619 250.108 223.471 249.528 220.303 249.6C217.135 249.527 213.986 250.108 211.052 251.304C208.118 252.501 205.461 254.288 203.247 256.556L203.246 256.557Z" fill="url(#paint0_linear)"/>
</g>
<defs>
<linearGradient id="paint0_linear" x1="131.211" y1="398.001" x2="343.386" y2="162.356" gradientUnits="userSpaceOnUse">
<stop stop-color="#9088E6"/>
<stop offset="1" stop-color="#5145D2"/>
</linearGradient>
<clipPath id="clip0">
<rect width="250.885" height="353" fill="white" transform="translate(97 45)"/>
</clipPath>
</defs>
</svg>
