<svg width="353" height="353" viewBox="0 0 353 353" fill="none" xmlns="http://www.w3.org/2000/svg">
<g clip-path="url(#clip0)">
<path d="M153.508 344.552C147.115 341.843 140.999 338.522 135.245 334.635C130.566 331.475 126.143 327.952 122.016 324.099C120.518 332.215 116.225 339.549 109.883 344.828C103.541 350.108 95.5495 352.999 87.2976 353C77.9361 353 68.958 349.281 62.3384 342.661C55.7189 336.041 52 327.062 52 317.7V35.2991C52 25.9369 55.7189 16.9577 62.3384 10.3376C68.958 3.71759 77.9361 -0.00100708 87.2976 -0.00100708C96.6591 -0.00100708 105.637 3.71759 112.257 10.3376C118.876 16.9577 122.595 25.9369 122.595 35.2991V166.307C126.558 162.663 130.786 159.319 135.246 156.304C141 152.419 147.116 149.099 153.509 146.392C166.75 140.788 180.985 137.914 195.362 137.941C209.74 137.914 223.976 140.789 237.217 146.394C243.61 149.101 249.726 152.421 255.48 156.306C261.188 160.169 266.514 164.566 271.388 169.44C276.259 174.315 280.655 179.644 284.516 185.353C288.401 191.108 291.722 197.224 294.431 203.617C300.033 216.858 302.909 231.093 302.884 245.471C302.911 259.849 300.037 274.085 294.436 287.327C291.727 293.72 288.406 299.836 284.521 305.591C280.658 311.299 276.261 316.627 271.388 321.502C266.513 326.375 261.185 330.771 255.475 334.631C249.721 338.518 243.605 341.839 237.211 344.547C223.972 350.151 209.738 353.026 195.362 353C180.985 353.028 166.749 350.155 153.508 344.552ZM158.246 211.557C153.812 216.262 151.342 222.483 151.342 228.949C151.342 235.415 153.812 241.637 158.246 246.342L195.361 286.449L232.477 246.342C236.911 241.637 239.38 235.415 239.38 228.949C239.38 222.483 236.911 216.262 232.477 211.557C230.243 209.31 227.586 207.529 224.659 206.317C221.732 205.105 218.594 204.487 215.426 204.497C212.258 204.487 209.119 205.105 206.192 206.317C203.265 207.529 200.608 209.31 198.374 211.557L195.365 214.829L192.355 211.557C190.142 209.29 187.486 207.502 184.553 206.305C181.619 205.108 178.471 204.528 175.303 204.6C172.135 204.527 168.986 205.108 166.052 206.304C163.118 207.501 160.461 209.288 158.247 211.556L158.246 211.557Z" fill="url(#paint0_linear)"/>
</g>
<defs>
<linearGradient id="paint0_linear" x1="86.2115" y1="353.001" x2="298.386" y2="117.356" gradientUnits="userSpaceOnUse">
<stop stop-color="#FF0C4C"/>
<stop offset="1" stop-color="#FF0C4C"/>
</linearGradient>
<clipPath id="clip0">
<rect width="250.885" height="353" fill="white" transform="translate(52)"/>
</clipPath>
</defs>
</svg>
