<svg xmlns="http://www.w3.org/2000/svg" width="64.029" height="61.813" viewBox="0 0 64.029 61.813"><g transform="translate(-1058.839 -712.27)"><g transform="translate(1048.385 701.779)"><path d="M2,0C19.437,0,33.572,13.812,33.572,30.85S19.437,61.7,2,61.7" transform="translate(40.911 10.491)" fill="#c0bcec"/><path d="M34.457,0C16.532,0,2,13.8,2,30.816S16.532,61.633,34.457,61.633" transform="translate(8.454 10.671)" fill="#5b51cb"/></g><g transform="translate(1073.614 -300.748)"><path d="M9.855,1031.412a8.6,8.6,0,0,0-6.278,2.511,8.977,8.977,0,0,0,0,12.555l13.663,14.476L30.9,1046.478a8.878,8.878,0,0,0-12.555-12.555L17.24,1035.1l-1.108-1.182A8.6,8.6,0,0,0,9.855,1031.412Z" transform="translate(0 0.001)" fill="#fff"/></g></g></svg>