<svg xmlns="http://www.w3.org/2000/svg" width="48.231" height="48.229" viewBox="0 0 48.231 48.229"><path d="M56.116,32C42.8,32,32,43.067,32,56.729A24.682,24.682,0,0,0,48.493,80.188c1.206.226,1.647-.538,1.647-1.2,0-.592-.022-2.142-.032-4.209-6.707,1.5-8.128-3.316-8.128-3.316-1.1-2.853-2.681-3.617-2.681-3.617-2.185-1.54.161-1.507.161-1.507a5.065,5.065,0,0,1,3.693,2.552c2.153,3.779,5.641,2.691,7.019,2.056A5.313,5.313,0,0,1,51.7,67.646C46.351,67.021,40.72,64.9,40.72,55.427A9.679,9.679,0,0,1,43.2,48.795a9.1,9.1,0,0,1,.237-6.546s2.024-.667,6.632,2.53a22.416,22.416,0,0,1,12.079,0c4.608-3.2,6.621-2.53,6.621-2.53A9.1,9.1,0,0,1,69,48.795a9.718,9.718,0,0,1,2.476,6.632c0,9.5-5.641,11.584-11.014,12.2A6,6,0,0,1,62.1,72.2c0,3.305-.032,5.975-.032,6.783,0,.657.431,1.432,1.658,1.184a24.635,24.635,0,0,0,16.5-23.437C80.231,43.067,69.433,32,56.116,32Z" transform="translate(-32 -32)" fill="#fff" fill-rule="evenodd"/></svg>