<svg xmlns="http://www.w3.org/2000/svg" width="644" height="54" viewBox="0 0 644 54"><g transform="translate(-240 -1344.465)"><rect width="644" height="54" rx="10" transform="translate(240 1344.465)" fill="#ff0c4c"/><g transform="translate(484.022 1352.48)"><text transform="translate(67.427 25.485)" fill="#fff" font-size="20" font-family="Sora" font-weight="600" letter-spacing="0.01em"><tspan x="0" y="0">Kontaktieren</tspan></text><g transform="translate(-3.599 -5.044)"><path d="M0,0H48.058V48.058H0Z" fill="none"/><path d="M38.043,4H6A4,4,0,0,0,2.02,8L2,32.034a4.017,4.017,0,0,0,4,4H38.043a4.017,4.017,0,0,0,4-4V8A4.017,4.017,0,0,0,38.043,4Zm0,8.01L22.024,22.022,6,12.01V8L22.024,18.017,38.043,8Z" transform="translate(2.005 4.01)" fill="#fff"/></g></g></g></svg>