<svg width="251" height="353" viewBox="0 0 251 353" fill="none" xmlns="http://www.w3.org/2000/svg">
<g clip-path="url(#clip0)">
<path d="M101.508 344.552C95.1148 341.843 88.9986 338.522 83.2446 334.635C78.5662 331.475 74.143 327.952 70.016 324.099C68.5179 332.215 64.2253 339.549 57.883 344.828C51.5407 350.108 43.5495 352.999 35.2976 353C25.9361 353 16.958 349.281 10.3384 342.661C3.71885 336.041 0 327.062 0 317.7V35.2991C0 25.9369 3.71885 16.9577 10.3384 10.3376C16.958 3.71759 25.9361 -0.00100708 35.2976 -0.00100708C44.6591 -0.00100708 53.6371 3.71759 60.2567 10.3376C66.8763 16.9577 70.5951 25.9369 70.5951 35.2991V166.307C74.5576 162.663 78.7862 159.319 83.2457 156.304C88.9998 152.419 95.116 149.099 101.509 146.392C114.75 140.788 128.985 137.914 143.362 137.941C157.74 137.914 171.976 140.789 185.217 146.394C191.61 149.101 197.726 152.421 203.48 156.306C209.188 160.169 214.515 164.566 219.388 169.44C224.259 174.315 228.655 179.644 232.516 185.353C236.401 191.108 239.722 197.224 242.431 203.617C248.033 216.858 250.909 231.093 250.884 245.471C250.911 259.849 248.037 274.085 242.436 287.327C239.727 293.72 236.406 299.836 232.521 305.591C228.658 311.299 224.261 316.627 219.388 321.502C214.513 326.375 209.185 330.771 203.475 334.631C197.721 338.518 191.605 341.839 185.211 344.547C171.972 350.151 157.738 353.026 143.362 353C128.985 353.028 114.749 350.155 101.508 344.552ZM106.246 211.557C101.812 216.262 99.3423 222.483 99.3423 228.949C99.3423 235.415 101.812 241.637 106.246 246.342L143.361 286.449L180.477 246.342C184.911 241.637 187.38 235.415 187.38 228.949C187.38 222.483 184.911 216.262 180.477 211.557C178.243 209.31 175.586 207.529 172.659 206.317C169.732 205.105 166.594 204.487 163.426 204.497C160.258 204.487 157.119 205.105 154.192 206.317C151.265 207.529 148.608 209.31 146.374 211.557L143.365 214.829L140.355 211.557C138.142 209.29 135.486 207.502 132.553 206.305C129.619 205.108 126.471 204.528 123.303 204.6C120.135 204.527 116.986 205.108 114.052 206.304C111.118 207.501 108.461 209.288 106.247 211.556L106.246 211.557Z" fill="url(#paint0_linear)"/>
</g>
<defs>
<linearGradient id="paint0_linear" x1="34.2115" y1="353.001" x2="246.386" y2="117.356" gradientUnits="userSpaceOnUse">
<stop stop-color="#FF0C4C"/>
<stop offset="1" stop-color="#FFABC1"/>
</linearGradient>
<clipPath id="clip0">
<rect width="250.885" height="353" fill="white"/>
</clipPath>
</defs>
</svg>
