<svg width="219" height="308" viewBox="0 0 219 308" fill="none" xmlns="http://www.w3.org/2000/svg">
<g clip-path="url(#clip0)">
<path d="M88.5679 300.628C82.9897 298.265 77.6532 295.367 72.6327 291.976C68.5507 289.219 64.6913 286.145 61.0905 282.783C59.7834 289.864 56.038 296.264 50.5042 300.87C44.9703 305.476 37.9978 307.999 30.7979 308C22.6298 308 14.7962 304.755 9.0205 298.979C3.24478 293.203 0 285.369 0 277.2V30.7991C0 22.6304 3.24478 14.7958 9.0205 9.01968C14.7962 3.24354 22.6298 -0.00100708 30.7979 -0.00100708C38.966 -0.00100708 46.7995 3.24354 52.5752 9.01968C58.351 14.7958 61.5957 22.6304 61.5957 30.7991V145.106C65.0531 141.927 68.7426 139.009 72.6337 136.378C77.6542 132.988 82.9907 130.092 88.5689 127.73C100.122 122.84 112.542 120.332 125.087 120.356C137.632 120.333 150.053 122.841 161.606 127.731C167.184 130.094 172.52 132.99 177.541 136.38C182.521 139.75 187.168 143.587 191.421 147.839C195.671 152.094 199.506 156.743 202.875 161.724C206.265 166.746 209.162 172.082 211.526 177.66C216.414 189.213 218.923 201.633 218.902 214.178C218.925 226.723 216.418 239.145 211.53 250.699C209.167 256.277 206.269 261.614 202.879 266.635C199.509 271.615 195.672 276.264 191.421 280.517C187.168 284.769 182.518 288.604 177.536 291.972C172.516 295.364 167.179 298.262 161.601 300.625C150.049 305.514 137.63 308.023 125.087 308C112.542 308.025 100.121 305.517 88.5679 300.628ZM92.7018 184.588C88.8331 188.693 86.6782 194.121 86.6782 199.763C86.6782 205.404 88.8331 210.833 92.7018 214.939L125.086 249.932L157.47 214.939C161.339 210.833 163.493 205.404 163.493 199.763C163.493 194.121 161.339 188.693 157.47 184.588C155.521 182.627 153.202 181.073 150.649 180.016C148.095 178.958 145.356 178.419 142.592 178.428C139.828 178.419 137.09 178.958 134.536 180.016C131.982 181.073 129.663 182.627 127.714 184.588L125.089 187.443L122.463 184.588C120.531 182.61 118.214 181.05 115.655 180.006C113.095 178.961 110.348 178.455 107.585 178.517C104.821 178.454 102.073 178.961 99.5128 180.005C96.9526 181.049 94.6346 182.608 92.7027 184.587L92.7018 184.588Z" fill="url(#paint0_linear)"/>
</g>
<defs>
<linearGradient id="paint0_linear" x1="109.451" y1="-0.00100708" x2="109.451" y2="308" gradientUnits="userSpaceOnUse">
<stop stop-color="#886ADF"/>
<stop offset="1" stop-color="#E45588"/>
</linearGradient>
<clipPath id="clip0">
<rect width="218.903" height="308" fill="white"/>
</clipPath>
</defs>
</svg>
