<svg width="231" height="325" viewBox="0 0 231 325" fill="none" xmlns="http://www.w3.org/2000/svg">
<g clip-path="url(#clip0)">
<path d="M93.4629 317.221C87.5764 314.726 81.9449 311.669 76.647 308.091C72.3393 305.181 68.2666 301.938 64.4668 298.391C63.0874 305.862 59.1351 312.615 53.2954 317.476C47.4557 322.336 40.0979 324.998 32.5 324.999C23.8805 324.999 15.614 321.575 9.51904 315.48C3.42411 309.386 0 301.119 0 292.499V32.499C0 23.8795 3.42411 15.6125 9.51904 9.51755C15.614 3.42262 23.8805 -0.00100708 32.5 -0.00100708C41.1195 -0.00100708 49.386 3.42262 55.481 9.51755C61.5759 15.6125 65 23.8795 65 32.499V153.115C68.6485 149.76 72.5419 146.682 76.6479 143.905C81.946 140.328 87.5775 137.272 93.4639 134.779C105.655 129.62 118.762 126.974 132 126.999C145.238 126.974 158.346 129.621 170.537 134.781C176.424 137.274 182.055 140.33 187.353 143.907C192.608 147.463 197.513 151.512 202 155.999C206.485 160.488 210.533 165.394 214.088 170.65C217.665 175.949 220.722 181.58 223.217 187.466C228.375 199.656 231.023 212.762 231 225.999C231.024 239.237 228.379 252.343 223.221 264.535C220.727 270.421 217.669 276.052 214.092 281.351C210.536 286.606 206.487 291.511 202 295.999C197.512 300.485 192.606 304.533 187.348 308.087C182.051 311.666 176.419 314.723 170.532 317.217C158.342 322.376 145.237 325.023 132 324.999C118.762 325.025 105.655 322.379 93.4629 317.221ZM97.8252 194.775C93.7427 199.108 91.4687 204.835 91.4688 210.788C91.4687 216.741 93.7427 222.469 97.8252 226.802L131.999 263.727L166.173 226.802C170.255 222.469 172.529 216.741 172.529 210.788C172.529 204.835 170.255 199.108 166.173 194.775C164.116 192.707 161.67 191.067 158.975 189.951C156.28 188.835 153.39 188.266 150.473 188.275C147.556 188.266 144.666 188.835 141.971 189.951C139.276 191.067 136.83 192.707 134.773 194.775L132.002 197.788L129.231 194.775C127.193 192.688 124.748 191.042 122.047 189.94C119.346 188.839 116.447 188.304 113.531 188.37C110.614 188.303 107.714 188.838 105.013 189.939C102.311 191.041 99.8649 192.687 97.8262 194.774L97.8252 194.775Z" fill="url(#paint0_linear)"/>
</g>
<defs>
<linearGradient id="paint0_linear" x1="31.5" y1="325" x2="226.843" y2="108.033" gradientUnits="userSpaceOnUse">
<stop stop-color="#9088E6"/>
<stop offset="1" stop-color="#5145D2"/>
</linearGradient>
<clipPath id="clip0">
<rect width="231.001" height="324.999" fill="white"/>
</clipPath>
</defs>
</svg>
