<svg xmlns="http://www.w3.org/2000/svg" width="762.32" height="157.57" viewBox="0 0 762.32 157.57"><path d="M-378.97-8.666l15.1-6.15a6.831,6.831,0,0,0,2.33-1.491,4.084,4.084,0,0,0,.932-2.982v-97a3.362,3.362,0,0,0-1.072-2.749,8.718,8.718,0,0,0-2.19-1.351l-15.1-6.15v-8.666h69.793q14.909,0,24.507,2.516t15.1,6.709a22.287,22.287,0,0,1,7.594,9.6,30.659,30.659,0,0,1,2.1,11.182,33.031,33.031,0,0,1-2,11.741,29.568,29.568,0,0,1-5.684,9.411,33.361,33.361,0,0,1-8.992,6.989,48.474,48.474,0,0,1-11.927,4.473v1.118a54.723,54.723,0,0,1,15.1,2.889,37.617,37.617,0,0,1,11.881,6.616A29.948,29.948,0,0,1-253.734-52a29.135,29.135,0,0,1,2.8,12.859,40.39,40.39,0,0,1-2.143,13.7A31.931,31.931,0,0,1-259-15.142a33.488,33.488,0,0,1-9.039,7.268,52.368,52.368,0,0,1-11.415,4.659,80.293,80.293,0,0,1-13,2.469A128.662,128.662,0,0,1-306.382,0H-378.97Zm59.45-68.675A52.444,52.444,0,0,0-307.034-78.6a21.323,21.323,0,0,0,8.107-3.681,13.45,13.45,0,0,0,4.38-5.87,22,22,0,0,0,1.3-7.827q0-11.648-5.451-16.866t-17.751-5.218h-12.3v40.72Zm9.6,60.2q12.58,0,18.636-4.939t6.057-16.027a34.752,34.752,0,0,0-1.491-10.9,15.838,15.838,0,0,0-4.8-7.268,20.043,20.043,0,0,0-8.666-4.007A60.385,60.385,0,0,0-313.277-61.5h-15.468v44.355Zm110.234,19.1A31.2,31.2,0,0,1-212.641-.606a29.559,29.559,0,0,1-9.6-6.756,29.772,29.772,0,0,1-6.01-9.551,30.049,30.049,0,0,1-2.1-11.042,30.462,30.462,0,0,1,2.236-11.927,32.251,32.251,0,0,1,6.01-9.411,38.482,38.482,0,0,1,8.712-7.035,58.079,58.079,0,0,1,10.343-4.845,65.262,65.262,0,0,1,10.949-2.842,63.368,63.368,0,0,1,10.483-.932q1.025,0,3.494.186t5.172.466q2.7.28,5.125.559t3.448.373V-71.1a44.14,44.14,0,0,0-.792-8.806,16.814,16.814,0,0,0-2.656-6.476,11.854,11.854,0,0,0-4.845-3.96,17.811,17.811,0,0,0-7.361-1.351,21.778,21.778,0,0,0-8.9,2.283A87.286,87.286,0,0,0-198.9-84q-4.985,3.122-9.365,6.243t-7.082,4.8h-7.082v-24.88q5.125-1.491,10.11-2.982t10.436-2.656q5.451-1.165,11.741-1.91a120.811,120.811,0,0,1,14.117-.745,90.283,90.283,0,0,1,15.748,1.351,37.883,37.883,0,0,1,13.558,5.032,27.238,27.238,0,0,1,9.5,10.157q3.588,6.476,3.588,16.633v49.852a8.623,8.623,0,0,0,.652,3.4,9.213,9.213,0,0,0,1.677,2.656,7.333,7.333,0,0,0,2.33,1.724,6.348,6.348,0,0,0,2.7.606,27.644,27.644,0,0,0,4.612-.419q2.469-.419,4.613-.978h3.541v9.784a50.8,50.8,0,0,1-5.032,2.656q-3.075,1.444-6.569,2.7a64.953,64.953,0,0,1-7.035,2.1,28.131,28.131,0,0,1-6.43.839A45.6,45.6,0,0,1-149.091.885,20.567,20.567,0,0,1-156.5-2.33a13.159,13.159,0,0,1-4.38-5.451,19.325,19.325,0,0,1-1.444-7.781h-1.491a36.012,36.012,0,0,1-8.293,9.132,39.319,39.319,0,0,1-9.318,5.311,39.744,39.744,0,0,1-9.5,2.469A69.654,69.654,0,0,1-199.689,1.957Zm16.214-18.17a26.379,26.379,0,0,0,4.985-.513,23.206,23.206,0,0,0,5.218-1.677,24.279,24.279,0,0,0,4.892-2.982,17.681,17.681,0,0,0,4.007-4.426V-50.877a100.433,100.433,0,0,0-13.931.885,35.808,35.808,0,0,0-10.762,3.075,17.281,17.281,0,0,0-6.942,5.87,16.472,16.472,0,0,0-2.469,9.365,17.3,17.3,0,0,0,1.444,7.548,13.617,13.617,0,0,0,3.634,4.752,12.825,12.825,0,0,0,4.845,2.469A19.953,19.953,0,0,0-183.475-16.214ZM-56.748,1.677A53.819,53.819,0,0,1-69.56.186a39.516,39.516,0,0,1-10.763-4.24,23.4,23.4,0,0,1-7.408-6.662,15.031,15.031,0,0,1-2.749-8.852v-67.37h-16.68v-14.443q4.1-.559,7.455-1.072a17.085,17.085,0,0,0,5.777-1.864,9.6,9.6,0,0,0,3.82-3.96,18.127,18.127,0,0,0,1.677-7.361l.932-14.443L-59.823-134v30.75H-23.3v16.307H-59.823v55.35a10.284,10.284,0,0,0,1.957,6.1A18.888,18.888,0,0,0-53.02-20.78a25.121,25.121,0,0,0,6.057,3.028,17.761,17.761,0,0,0,5.591,1.072q1.491,0,3.494-.093t4.053-.233q2.05-.14,3.914-.28t2.982-.326h4.473V-8.2q-1.77.932-5.265,2.609A75.6,75.6,0,0,1-35.828-2.33,94.533,94.533,0,0,1-45.845.466,49.7,49.7,0,0,1-56.748,1.677Zm79.764.28A31.2,31.2,0,0,1,10.064-.606a29.559,29.559,0,0,1-9.6-6.756,29.772,29.772,0,0,1-6.01-9.551,30.049,30.049,0,0,1-2.1-11.042A30.462,30.462,0,0,1-5.4-39.882a32.251,32.251,0,0,1,6.01-9.411,38.482,38.482,0,0,1,8.712-7.035,58.08,58.08,0,0,1,10.343-4.845A65.262,65.262,0,0,1,30.61-64.016a63.368,63.368,0,0,1,10.483-.932q1.025,0,3.494.186t5.172.466q2.7.28,5.125.559t3.448.373V-71.1A44.14,44.14,0,0,0,57.54-79.9a16.814,16.814,0,0,0-2.656-6.476,11.854,11.854,0,0,0-4.845-3.96,17.811,17.811,0,0,0-7.361-1.351,21.778,21.778,0,0,0-8.9,2.283,87.288,87.288,0,0,0-9.97,5.4q-4.985,3.122-9.365,6.243t-7.082,4.8H.28v-24.88q5.125-1.491,10.11-2.982t10.436-2.656q5.451-1.165,11.741-1.91a120.811,120.811,0,0,1,14.117-.745,90.283,90.283,0,0,1,15.748,1.351A37.883,37.883,0,0,1,75.99-99.751a27.237,27.237,0,0,1,9.5,10.157q3.588,6.476,3.588,16.633v49.852a8.623,8.623,0,0,0,.652,3.4,9.213,9.213,0,0,0,1.677,2.656,7.333,7.333,0,0,0,2.33,1.724,6.348,6.348,0,0,0,2.7.606,27.644,27.644,0,0,0,4.612-.419q2.469-.419,4.613-.978h3.541v9.784a50.8,50.8,0,0,1-5.032,2.656q-3.075,1.444-6.569,2.7a64.953,64.953,0,0,1-7.035,2.1,28.131,28.131,0,0,1-6.43.839A45.6,45.6,0,0,1,73.614.885,20.567,20.567,0,0,1,66.206-2.33a13.16,13.16,0,0,1-4.38-5.451,19.325,19.325,0,0,1-1.444-7.781H58.891A36.012,36.012,0,0,1,50.6-6.43,39.32,39.32,0,0,1,41.28-1.118a39.744,39.744,0,0,1-9.5,2.469A69.654,69.654,0,0,1,23.016,1.957ZM39.23-16.214a26.378,26.378,0,0,0,4.985-.513A23.207,23.207,0,0,0,49.433-18.4a24.279,24.279,0,0,0,4.892-2.982,17.681,17.681,0,0,0,4.007-4.426V-50.877a100.433,100.433,0,0,0-13.931.885,35.808,35.808,0,0,0-10.763,3.075,17.281,17.281,0,0,0-6.942,5.87,16.472,16.472,0,0,0-2.469,9.365,17.3,17.3,0,0,0,1.444,7.548,13.618,13.618,0,0,0,3.634,4.752,12.825,12.825,0,0,0,4.845,2.469A19.953,19.953,0,0,0,39.23-16.214ZM161.577,1.957a38.623,38.623,0,0,1-17.332-3.774A37.517,37.517,0,0,1,131.293-12.3a48.4,48.4,0,0,1-8.153-15.841A66.49,66.49,0,0,1,120.3-47.989a72.163,72.163,0,0,1,3.448-22.5,56.547,56.547,0,0,1,9.877-18.45,46.719,46.719,0,0,1,15.655-12.44,46.427,46.427,0,0,1,20.873-4.566,39.683,39.683,0,0,1,8.573.885,36.544,36.544,0,0,1,7.361,2.423,32.122,32.122,0,0,1,6.057,3.587,31.269,31.269,0,0,1,4.659,4.286l-.932-7.455v-22.923a3.53,3.53,0,0,0-.978-2.749,9.061,9.061,0,0,0-2.469-1.538l-15.468-6.9v-8.852h49.573V-20.966a3.365,3.365,0,0,0,1.165,2.8,10.678,10.678,0,0,0,2.469,1.491L241.9-11.648V-2.8L197.918,1.864h0V-15.561h-1.584A37.68,37.68,0,0,1,187.2-5.777a40.108,40.108,0,0,1-9.738,5.265,36.238,36.238,0,0,1-8.992,2.1Q164.28,1.957,161.577,1.957ZM177.325-16.4a23.753,23.753,0,0,0,4.612-.513,24.448,24.448,0,0,0,5.172-1.677,24.955,24.955,0,0,0,4.939-2.935,14.831,14.831,0,0,0,3.82-4.286V-84.889a13.515,13.515,0,0,0-3.914-1.91,42.606,42.606,0,0,0-5.032-1.3,43.241,43.241,0,0,0-5.078-.7q-2.469-.186-4.053-.186a22.329,22.329,0,0,0-11.368,2.749,23.607,23.607,0,0,0-7.874,7.408,33.267,33.267,0,0,0-4.613,10.949,57.834,57.834,0,0,0-1.491,13.372,76.978,76.978,0,0,0,1.4,15.1,38.666,38.666,0,0,0,4.38,12.067,22.793,22.793,0,0,0,7.734,8.014A21.208,21.208,0,0,0,177.325-16.4ZM303.307,1.957A42.642,42.642,0,0,1,290.215,0a28.685,28.685,0,0,1-10.669-6.1,28.814,28.814,0,0,1-7.222-10.669,41.468,41.468,0,0,1-2.656-15.655V-82.28a3.506,3.506,0,0,0-1.072-2.8,9.006,9.006,0,0,0-2.376-1.491L254.48-91.6v-8.852l46.032-4.659v60.568a93.52,93.52,0,0,0,.606,11.275,22.691,22.691,0,0,0,2.469,8.293,12.5,12.5,0,0,0,5.265,5.125,19.528,19.528,0,0,0,8.992,1.77,52.1,52.1,0,0,0,5.265-.28,26.084,26.084,0,0,0,5.358-1.118A19.192,19.192,0,0,0,333.4-21.9a15.076,15.076,0,0,0,4.1-4.286v-56.1a3.362,3.362,0,0,0-1.072-2.749,10.781,10.781,0,0,0-2.562-1.538L322.223-91.6v-8.852l45.939-4.659v84.143a3.361,3.361,0,0,0,1.072,2.749A11.468,11.468,0,0,0,371.7-16.68l11.648,5.032V-2.8l-43.8,4.659h0V-15.1h-1.4a49.342,49.342,0,0,1-8.945,9.039,39.6,39.6,0,0,1-8.852,5.125,35.27,35.27,0,0,1-8.666,2.33A64.813,64.813,0,0,1,303.307,1.957Zm28.514-116.1q-7.175-4.473-12.253-7.548t-8.806-5.311q-3.727-2.236-6.43-3.867t-5.032-3.215a26.3,26.3,0,0,1-6.336-5.637A10.727,10.727,0,0,1,291.1-146.2a7.009,7.009,0,0,1,.978-3.494,10.213,10.213,0,0,1,2.656-3.028,14,14,0,0,1,3.867-2.1,13.732,13.732,0,0,1,4.706-.792,25.525,25.525,0,0,1,4.193.326,14.385,14.385,0,0,1,3.82,1.211,16.572,16.572,0,0,1,3.774,2.563,28.225,28.225,0,0,1,3.867,4.286q1.677,2.236,3.308,4.566t3.82,5.5q2.19,3.168,5.172,7.5t7.361,10.576Z" transform="translate(378.97 155.614)"/></svg>