<svg xmlns="http://www.w3.org/2000/svg" width="28.904" height="34.143" viewBox="0 0 28.904 34.143"><g transform="translate(0 0)"><path d="M75.343,44.251c5.089-.06,8.929-2.085,10.548-6.8,1.626-4.577,1.212-8.809-3.313-10.563-2.929-1.137-3.892-.858-15.359-.858A1.529,1.529,0,0,0,65.713,27.3L61.3,55.3a.915.915,0,0,0,.911,1.046h5.616c.151,0,.2-.053.226-.188.309-1.9,1.355-8.643,1.619-10.089C70.11,43.724,72.075,44.3,75.343,44.251Z" transform="translate(-61.293 -26.001)" fill="#fff"/><path d="M184.5,149.507c-.136-.1-.188-.136-.226.1a17.618,17.618,0,0,1-.663,2.53c-3,8.568-11.331,7.822-15.4,7.822a.758.758,0,0,0-.821.708c-1.7,10.57-2.04,12.776-2.04,12.776a.8.8,0,0,0,.8.971h4.781a1.351,1.351,0,0,0,1.31-1.122c.053-.407-.083.459,1.084-6.874.346-1.656,1.077-1.483,2.206-1.483,5.346,0,9.516-2.168,10.759-8.455C186.778,153.859,186.635,151.1,184.5,149.507Z" transform="translate(-157.617 -140.269)" fill="#fff"/></g></svg>