<svg xmlns="http://www.w3.org/2000/svg" width="37.069" height="48.653" viewBox="0 0 37.069 48.653"><path d="M36.435,17.218H34.118V12.584a11.584,11.584,0,0,0-23.168,0v4.634H8.634A4.647,4.647,0,0,0,4,21.851V45.019a4.647,4.647,0,0,0,4.634,4.634h27.8a4.647,4.647,0,0,0,4.634-4.634V21.851A4.647,4.647,0,0,0,36.435,17.218Zm-13.9,20.851a4.634,4.634,0,1,1,4.634-4.634A4.647,4.647,0,0,1,22.534,38.069Zm7.182-20.851H15.352V12.584a7.182,7.182,0,0,1,14.364,0Z" transform="translate(-4 -1)" fill="#ff0c4c"/></svg>