<svg xmlns="http://www.w3.org/2000/svg" width="61" height="61" viewBox="0 0 61 61"><g transform="translate(0.033 0)"><rect width="61" height="61" transform="translate(-0.033 0)" fill="none"/><path d="M43.838,8.1h-5.1V3H13.21V8.1H8.1A5.12,5.12,0,0,0,3,13.21v2.552A12.74,12.74,0,0,0,14.2,28.371a12.786,12.786,0,0,0,9.214,7.555v7.912H13.21v5.1H38.733v-5.1H28.524V35.926a12.786,12.786,0,0,0,9.214-7.555,12.74,12.74,0,0,0,11.2-12.609V13.21A5.12,5.12,0,0,0,43.838,8.1ZM8.1,15.762V13.21h5.1v9.75A7.684,7.684,0,0,1,8.1,15.762Zm35.733,0a7.684,7.684,0,0,1-5.1,7.2V13.21h5.1Z" transform="translate(5.121 5.07)" fill="#9088e6"/></g></svg>