<svg xmlns="http://www.w3.org/2000/svg" width="57.158" height="57.158" viewBox="0 0 57.158 57.158"><path d="M23.056,16.436,19.99,7l-3.066,9.436L7,16.925,15.028,21.2,11.962,32.981l8.028-7.457,8.028,7.457L24.953,21.2l8.028-4.271Z" transform="translate(8.589 8.589)" fill="#ff0c4c"/><path d="M16.2,8.794V3.6a2.6,2.6,0,0,0-5.2,0v5.2a2.6,2.6,0,0,0,5.2,0Z" transform="translate(14.981 -1)" fill="#ff0c4c"/><path d="M11,21.6v5.2a2.6,2.6,0,0,0,5.2,0V21.6a2.6,2.6,0,1,0-5.2,0Z" transform="translate(14.981 27.766)" fill="#ff0c4c"/><path d="M24.766,4.69a2.6,2.6,0,0,0-3.674,0L17.418,8.364a2.6,2.6,0,1,0,3.674,3.674l3.673-3.674A2.6,2.6,0,0,0,24.766,4.69Z" transform="translate(24.021 3.681)" fill="#ff0c4c"/><path d="M4.69,24.766a2.6,2.6,0,0,0,3.674,0l3.674-3.674a2.6,2.6,0,1,0-3.674-3.674L4.69,21.092a2.6,2.6,0,0,0,0,3.674Z" transform="translate(3.681 24.021)" fill="#ff0c4c"/><path d="M26.794,11H21.6a2.6,2.6,0,1,0,0,5.2h5.2a2.6,2.6,0,0,0,0-5.2Z" transform="translate(27.766 14.981)" fill="#ff0c4c"/><path d="M3.6,16.2h5.2a2.6,2.6,0,0,0,0-5.2H3.6a2.6,2.6,0,0,0,0,5.2Z" transform="translate(-1 14.981)" fill="#ff0c4c"/><path d="M21.092,24.766a2.6,2.6,0,1,0,3.674-3.674l-3.674-3.673a2.6,2.6,0,1,0-3.674,3.674Z" transform="translate(24.021 24.021)" fill="#ff0c4c"/><path d="M12.038,12.038a2.6,2.6,0,0,0,0-3.674L8.364,4.69A2.6,2.6,0,1,0,4.69,8.364l3.674,3.673A2.6,2.6,0,0,0,12.038,12.038Z" transform="translate(3.681 3.681)" fill="#ff0c4c"/></svg>